<?xml version="1.0" standalone="no"?>
<!DOCTYPE svg PUBLIC "-//W3C//DTD SVG 20010904//EN"
 "http://www.w3.org/TR/2001/REC-SVG-20010904/DTD/svg10.dtd">
<svg version="1.0" xmlns="http://www.w3.org/2000/svg"
 width="350.000000pt" height="350.000000pt" viewBox="0 0 350.000000 350.000000"
 preserveAspectRatio="xMidYMid meet">
<metadata>
Created by potrace 1.11, written by Peter Selinger 2001-2013
</metadata>
<g transform="translate(0.000000,350.000000) scale(0.100000,-0.100000)"
fill="#000000" stroke="none">
<path d="M1619 3486 c-2 -2 -33 -7 -69 -10 -36 -4 -74 -9 -85 -11 -11 -3 -31
-7 -45 -9 -44 -7 -183 -45 -240 -64 -406 -142 -754 -439 -964 -824 -75 -137
-162 -390 -182 -528 -2 -19 -8 -57 -12 -85 -15 -107 -7 -400 13 -510 103 -552
456 -1020 950 -1260 99 -48 249 -107 308 -120 158 -35 155 -34 272 -51 28 -4
115 -7 195 -7 597 4 1142 304 1464 807 89 140 188 371 222 521 47 208 61 485
33 640 -4 22 -10 58 -13 80 -7 54 -42 183 -73 275 -79 232 -238 480 -422 659
-76 74 -219 190 -263 214 -12 7 -41 24 -64 39 -227 146 -544 236 -860 243 -89
2 -163 2 -165 1z"/>
</g>
</svg>
